<svg id="Ebene_1" data-name="Ebene 1" xmlns="http://www.w3.org/2000/svg" viewBox="0 0 270.87 43.44"><defs><style>.cls-1{fill:#1a171b;}</style></defs><title>narco_logo</title><path class="cls-1" d="M59.84,701.91h2.94l29,36.54V701.91h3v42H92.42L62.84,706.59v37.32h-3v-42Z" transform="translate(-59.84 -701.19)"/><path class="cls-1" d="M178.64,701.91h17.64a19.81,19.81,0,0,1,6.9,1.11,13.45,13.45,0,0,1,4.92,3,10.85,10.85,0,0,1,2.34,3.51,11,11,0,0,1,.84,4.29V714a11.39,11.39,0,0,1-.93,4.71,10.69,10.69,0,0,1-2.58,3.57,13.26,13.26,0,0,1-3.9,2.43A19.65,19.65,0,0,1,199,726l13.86,17.94h-4l-13.38-17.4H181.76v17.4h-3.12v-42Zm17.28,21.78a17.26,17.26,0,0,0,4.89-.66,11.78,11.78,0,0,0,3.87-1.9,9,9,0,0,0,2.55-3,8.63,8.63,0,0,0,.93-4.06v-0.12A8.1,8.1,0,0,0,205,707.2q-3.15-2.47-8.91-2.47H181.76v19h14.16Z" transform="translate(-59.84 -701.19)"/><path class="cls-1" d="M253,744.63a20.59,20.59,0,0,1-8.34-1.68,20.38,20.38,0,0,1-6.63-4.59,20.82,20.82,0,0,1-4.35-6.87,22.85,22.85,0,0,1-1.56-8.46v-0.12a22.34,22.34,0,0,1,1.59-8.4,22,22,0,0,1,4.38-6.93,20.31,20.31,0,0,1,15-6.39,24.9,24.9,0,0,1,5.1.48,19.88,19.88,0,0,1,4.23,1.38,22.22,22.22,0,0,1,3.66,2.13,35.16,35.16,0,0,1,3.33,2.73l-2.22,2.28a33.55,33.55,0,0,0-2.88-2.46,18.08,18.08,0,0,0-3.21-2,19,19,0,0,0-3.72-1.29,18.74,18.74,0,0,0-4.35-.48,17,17,0,0,0-12.63,5.43,18.81,18.81,0,0,0-3.72,6,19.93,19.93,0,0,0-1.35,7.38v0.12a19.75,19.75,0,0,0,1.38,7.41,19.15,19.15,0,0,0,3.75,6,17.36,17.36,0,0,0,5.61,4,16.78,16.78,0,0,0,7,1.47,17.51,17.51,0,0,0,7.92-1.68,25.4,25.4,0,0,0,6.54-4.86l2.1,2a39.78,39.78,0,0,1-3.45,3,21.47,21.47,0,0,1-3.78,2.31,21,21,0,0,1-4.35,1.5A22.66,22.66,0,0,1,253,744.63Z" transform="translate(-59.84 -701.19)"/><path class="cls-1" d="M309.5,744.63a20.42,20.42,0,0,1-15.3-6.51,21.1,21.1,0,0,1-4.26-6.87,22.7,22.7,0,0,1-1.5-8.22v-0.12a22.53,22.53,0,0,1,1.53-8.25,21.81,21.81,0,0,1,4.29-6.93,20.37,20.37,0,0,1,6.66-4.77,22.13,22.13,0,0,1,17.34,0,20.61,20.61,0,0,1,6.66,4.74,21.14,21.14,0,0,1,4.26,6.87,22.72,22.72,0,0,1,1.5,8.22,0.08,0.08,0,0,1,0,.12,22.53,22.53,0,0,1-1.53,8.25,21.8,21.8,0,0,1-4.29,6.93,20.28,20.28,0,0,1-6.69,4.77A20.9,20.9,0,0,1,309.5,744.63Zm0.12-2.82a17.21,17.21,0,0,0,12.81-5.49,18.42,18.42,0,0,0,3.69-6,20.16,20.16,0,0,0,1.32-7.32v-0.12a20,20,0,0,0-1.35-7.35,18.75,18.75,0,0,0-3.72-6,17.59,17.59,0,0,0-5.67-4.05,17.53,17.53,0,0,0-20,4,18.4,18.4,0,0,0-3.69,6,20.14,20.14,0,0,0-1.32,7.32v0.12a20,20,0,0,0,1.35,7.35,18.72,18.72,0,0,0,3.72,6,17.55,17.55,0,0,0,5.67,4.05A17.19,17.19,0,0,0,309.62,741.81Z" transform="translate(-59.84 -701.19)"/><polygon class="cls-1" points="59.04 42.72 76.8 3.84 94.5 42.72 97.92 42.72 78.36 0.42 75.36 0.42 55.8 42.72 59.04 42.72"/></svg>